STARTFONT 2.1
COMMENT $XConsortium: luIS19.bdf,v 1.4 94/04/02 16:23:36 gildea Exp $
COMMENT  (c) Copyright Bigelow & Holmes 1986, 1985. Lucida is a registered
COMMENT  trademark of Bigelow & Holmes. See LEGAL NOTICE file for terms 
COMMENT  of the license. 
COMMENT  
COMMENT  Translation to ISO8859-2 by Cub Soft;  Petr.Kolar@vslib.cz
COMMENT  
FONT -B&H-Lucida-Medium-I-Normal-Sans-26-190-100-100-P-147-ISO8859-2
SIZE 19 100 100
FONTBOUNDINGBOX 50 29 -17 -5
STARTPROPERTIES 20
COMMENT Begin LogicalFontDescription
FONTNAME_REGISTRY ""
FOUNDRY "B&H"
FAMILY_NAME "Lucida"
WEIGHT_NAME "Medium"
SLANT "I"
SETWIDTH_NAME "Normal"
ADD_STYLE_NAME "Sans"
PIXEL_SIZE 26
POINT_SIZE 190
RESOLUTION_X 100
RESOLUTION_Y 100
SPACING "P"
AVERAGE_WIDTH "147"
CHARSET_REGISTRY "ISO8859"
CHARSET_ENCODING "2"
COMMENT END LogicalFontDescription
COPYRIGHT "Copyright Bigelow & Holmes 1986, 1985., Copyright 1996 Cub Soft"
FONT_ASCENT 24
FONT_DESCENT 6
DEFAULT_CHAR 0
FACE_NAME "Lucida Sans Italic"
ENDPROPERTIES
CHARS 191
STARTCHAR space
ENCODING 32
SWIDTH 316 0
DWIDTH 8 0
BBX 1 1 0 0
BITMAP
00
ENDCHAR
STARTCHAR exclam
ENCODING 33
SWIDTH 193 0
DWIDTH 8 0
BBX 6 19 3 0
BITMAP
1c
1c
1c
18
18
18
38
30
30
30
30
30
60
60
00
00
00
e0
e0
ENDCHAR
STARTCHAR quotedbl
ENCODING 34
SWIDTH 361 0
DWIDTH 9 0
BBX 7 6 5 13
BITMAP
ee
ce
c6
c6
c6
c6
ENDCHAR
STARTCHAR numbersign
ENCODING 35
SWIDTH 633 0
DWIDTH 16 0
BBX 16 19 2 0
BITMAP
0067
00c6
00ce
018c
011c
7fff
7fff
0630
0630
0c60
0c60
fffe
fffe
11c0
3180
3180
6300
6300
c600
ENDCHAR
STARTCHAR dollar
ENCODING 36
SWIDTH 633 0
DWIDTH 16 0
BBX 13 22 4 -2
BITMAP
0080
01f0
07f8
1fc8
1d00
3900
3900
3b00
1f00
0e00
0700
0380
07c0
04e0
04e0
04e0
04e0
8dc0
ff80
ff00
0800
0800
ENDCHAR
STARTCHAR percent
ENCODING 37
SWIDTH 741 0
DWIDTH 19 0
BBX 20 19 2 0
BITMAP
078070
1fc0c0
18c1c0
304380
30c300
30c600
31cc00
3f9800
1e3000
006780
00cfc0
0198c0
0330c0
0630c0
0c30c0
1830c0
383180
703f00
e01e00
ENDCHAR
STARTCHAR ampersand
ENCODING 38
SWIDTH 701 0
DWIDTH 18 0
BBX 17 19 2 0
BITMAP
007800
01fc00
038c00
030c00
030c00
031c00
037800
03f000
0fc000
3d8380
71c300
e0c300
e0e700
e06600
e07c00
e03c00
707800
7fdc00
1f1e00
ENDCHAR
STARTCHAR apostrophe
ENCODING 39
SWIDTH 217 0
DWIDTH 6 0
BBX 5 7 4 12
BITMAP
38
78
70
30
70
e0
80
ENDCHAR
STARTCHAR parenleft
ENCODING 40
SWIDTH 325 0
DWIDTH 8 0
BBX 9 23 3 -4
BITMAP
0180
0100
0600
0e00
0c00
1800
3800
3000
7000
6000
6000
e000
e000
c000
c000
c000
c000
c000
6000
6000
7000
3000
1000
ENDCHAR
STARTCHAR parenright
ENCODING 41
SWIDTH 325 0
DWIDTH 8 0
BBX 9 23 1 -4
BITMAP
0400
0c00
0600
0300
0300
0300
0300
0300
0380
0300
0300
0300
0300
0700
0600
0e00
0c00
1c00
1800
3000
6000
c000
8000
ENDCHAR
STARTCHAR asterisk
ENCODING 42
SWIDTH 470 0
DWIDTH 12 0
BBX 10 9 4 10
BITMAP
0600
0400
4c00
fdc0
3380
1c00
3600
e600
4300
ENDCHAR
STARTCHAR plus
ENCODING 43
SWIDTH 633 0
DWIDTH 16 0
BBX 15 16 2 0
BITMAP
00c0
00c0
0180
0180
0180
0180
0180
fffe
fffe
0300
0300
0300
0300
0300
0600
0600
ENDCHAR
STARTCHAR comma
ENCODING 44
SWIDTH 316 0
DWIDTH 8 0
BBX 5 9 2 -5
BITMAP
78
78
78
70
30
30
30
60
c0
ENDCHAR
STARTCHAR minus
ENCODING 45
SWIDTH 633 0
DWIDTH 16 0
BBX 15 2 2 7
BITMAP
fffe
fffe
ENDCHAR
STARTCHAR period
ENCODING 46
SWIDTH 316 0
DWIDTH 8 0
BBX 4 3 2 0
BITMAP
70
f0
e0
ENDCHAR
STARTCHAR slash
ENCODING 47
SWIDTH 482 0
DWIDTH 13 0
BBX 17 23 0 -4
BITMAP
000380
000300
000600
000600
000c00
001800
001800
003000
007000
006000
00c000
01c000
018000
030000
070000
060000
0c0000
0c0000
180000
300000
300000
600000
e00000
ENDCHAR
STARTCHAR zero
ENCODING 48
SWIDTH 633 0
DWIDTH 16 0
BBX 14 19 3 0
BITMAP
03e0
07f0
0e38
1c1c
381c
301c
701c
601c
601c
e01c
e018
e038
e038
e030
e070
e0e0
71c0
7f80
1e00
ENDCHAR
STARTCHAR one
ENCODING 49
SWIDTH 633 0
DWIDTH 16 0
BBX 6 19 7 0
BITMAP
7c
fc
1c
18
18
18
38
38
30
30
30
70
70
60
60
60
e0
e0
c0
ENDCHAR
STARTCHAR two
ENCODING 50
SWIDTH 633 0
DWIDTH 16 0
BBX 14 19 3 0
BITMAP
03e0
0ff8
0c3c
101c
001c
001c
001c
0038
0070
00e0
01c0
0380
0e00
1c00
3800
7000
7000
ffe0
ffe0
ENDCHAR
STARTCHAR three
ENCODING 51
SWIDTH 633 0
DWIDTH 16 0
BBX 13 19 3 0
BITMAP
0fe0
0ff0
0838
0038
0018
0038
0070
00e0
0f80
1fc0
01e0
0070
0070
0070
0070
00e0
c1c0
ff80
7e00
ENDCHAR
STARTCHAR four
ENCODING 52
SWIDTH 633 0
DWIDTH 16 0
BBX 14 19 2 0
BITMAP
001c
003c
0078
00f8
01d8
03b8
0738
0e30
1c30
3830
7030
6060
fffc
fffc
0060
00e0
00e0
00c0
00c0
ENDCHAR
STARTCHAR five
ENCODING 53
SWIDTH 633 0
DWIDTH 16 0
BBX 14 19 3 0
BITMAP
0ffc
0ffc
0800
1800
1800
1800
1800
1f00
3fc0
01e0
0070
0070
0070
0070
0060
00e0
c1c0
ff80
fe00
ENDCHAR
STARTCHAR six
ENCODING 54
SWIDTH 633 0
DWIDTH 16 0
BBX 14 19 3 0
BITMAP
01f8
07fc
0e0c
1c00
3800
3000
7000
77c0
7ff0
f870
f038
e038
e038
e030
e070
e060
70e0
3fc0
1f00
ENDCHAR
STARTCHAR seven
ENCODING 55
SWIDTH 633 0
DWIDTH 16 0
BBX 14 19 4 0
BITMAP
3ffc
3ffc
003c
0038
0070
00e0
01c0
0380
0700
0700
0e00
1c00
1c00
3800
7800
7000
7000
e000
e000
ENDCHAR
STARTCHAR eight
ENCODING 56
SWIDTH 633 0
DWIDTH 16 0
BBX 14 19 3 0
BITMAP
03f0
07f8
0e1c
180c
180c
181c
1c38
1ef0
0fc0
1fe0
39f0
7070
e038
e038
e038
e070
f0f0
7fe0
1f80
ENDCHAR
STARTCHAR nine
ENCODING 57
SWIDTH 633 0
DWIDTH 16 0
BBX 14 19 3 0
BITMAP
03e0
0ff8
1e38
181c
381c
301c
701c
701c
703c
387c
3ff8
0fb8
0038
0030
0070
00e0
c1c0
ff80
7e00
ENDCHAR
STARTCHAR colon
ENCODING 58
SWIDTH 316 0
DWIDTH 8 0
BBX 5 14 3 0
BITMAP
38
38
00
00
00
00
00
00
00
00
00
00
e0
e0
ENDCHAR
STARTCHAR semicolon
ENCODING 59
SWIDTH 316 0
DWIDTH 8 0
BBX 6 19 2 -5
BITMAP
1c
1c
00
00
00
00
00
00
00
00
00
70
70
60
20
60
60
c0
80
ENDCHAR
STARTCHAR less
ENCODING 60
SWIDTH 633 0
DWIDTH 16 0
BBX 17 16 2 0
BITMAP
000080
000380
000f00
003c00
00f000
07c000
1f0000
fc0000
780000
3e0000
0f0000
03c000
00f000
007800
001c00
000400
ENDCHAR
STARTCHAR equal
ENCODING 61
SWIDTH 633 0
DWIDTH 16 0
BBX 16 7 2 4
BITMAP
7fff
7fff
0000
0000
0000
fffe
fffe
ENDCHAR
STARTCHAR greater
ENCODING 62
SWIDTH 633 0
DWIDTH 16 0
BBX 17 16 0 0
BITMAP
100000
1c0000
0f0000
078000
01e000
007800
003e00
000f00
001f80
007c00
01f000
078000
1e0000
780000
e00000
800000
ENDCHAR
STARTCHAR question
ENCODING 63
SWIDTH 464 0
DWIDTH 12 0
BBX 10 19 3 0
BITMAP
3f00
7fc0
41c0
00c0
00c0
01c0
0180
0380
0600
0c00
1800
3000
7000
7000
0000
0000
0000
e000
e000
ENDCHAR
STARTCHAR at
ENCODING 64
SWIDTH 858 0
DWIDTH 22 0
BBX 20 19 3 0
BITMAP
00fe00
03ff80
0703c0
1c00e0
187e60
31fe20
638430
420c30
c60c30
c61c30
841820
8c2860
ce58c0
c7df80
470f00
600000
381000
1ff000
07e000
ENDCHAR
STARTCHAR A
ENCODING 65
SWIDTH 687 0
DWIDTH 18 0
BBX 17 19 1 0
BITMAP
003800
003c00
007c00
007c00
00ec00
00cc00
01ce00
038e00
030e00
070600
060600
0e0700
0fff00
1fff00
180700
380300
700380
600380
e00380
ENDCHAR
STARTCHAR B
ENCODING 66
SWIDTH 593 0
DWIDTH 15 0
BBX 14 19 2 0
BITMAP
0ff0
1ff8
1c3c
1c1c
181c
1838
3838
38f0
3fc0
3fc0
30f0
7070
7038
7038
7038
6070
e0f0
ffe0
ff80
ENDCHAR
STARTCHAR C
ENCODING 67
SWIDTH 679 0
DWIDTH 18 0
BBX 17 19 3 0
BITMAP
00ff00
03ff80
0f8180
1e0000
3c0000
380000
700000
700000
700000
e00000
e00000
e00000
e00000
e00000
e00000
700400
781c00
3ffc00
0fe000
ENDCHAR
STARTCHAR D
ENCODING 68
SWIDTH 743 0
DWIDTH 19 0
BBX 18 19 2 0
BITMAP
0ffc00
1fff00
1c0f80
1c03c0
1c01c0
1801c0
3801c0
3801c0
3801c0
3801c0
300180
700380
700380
700700
700e00
601e00
e03c00
fff000
ffc000
ENDCHAR
STARTCHAR E
ENCODING 69
SWIDTH 547 0
DWIDTH 14 0
BBX 14 19 3 0
BITMAP
0ffc
1ffc
1c00
1c00
1800
1800
3800
3800
3fe0
3fe0
3000
7000
7000
7000
6000
6000
e000
ffe0
ffe0
ENDCHAR
STARTCHAR F
ENCODING 70
SWIDTH 536 0
DWIDTH 14 0
BBX 14 19 3 0
BITMAP
0ffc
1ffc
1c00
1c00
1800
1800
3800
3800
3fe0
3fe0
3000
7000
7000
7000
7000
6000
e000
e000
e000
ENDCHAR
STARTCHAR G
ENCODING 71
SWIDTH 702 0
DWIDTH 18 0
BBX 17 19 3 0
BITMAP
00ff00
03ff80
0f8180
1e0000
3c0000
380000
700000
700000
600000
e00000
e00000
e00600
e00e00
e00e00
e00e00
700c00
781c00
3ffc00
0fe000
ENDCHAR
STARTCHAR H
ENCODING 72
SWIDTH 735 0
DWIDTH 19 0
BBX 18 19 2 0
BITMAP
0c01c0
1c01c0
1c01c0
1c0180
180380
180380
380380
380380
3fff00
3fff00
300700
700700
700700
700600
700e00
600e00
e00e00
e00e00
e00c00
ENDCHAR
STARTCHAR I
ENCODING 73
SWIDTH 289 0
DWIDTH 8 0
BBX 6 19 3 0
BITMAP
1c
1c
1c
18
18
38
38
38
38
30
70
70
70
70
60
60
e0
e0
e0
ENDCHAR
STARTCHAR J
ENCODING 74
SWIDTH 408 0
DWIDTH 11 0
BBX 13 23 0 -4
BITMAP
0038
0038
0030
0030
0070
0070
0070
0060
0060
00e0
00e0
00e0
00c0
00c0
01c0
01c0
01c0
0180
0380
0380
8700
fe00
fc00
ENDCHAR
STARTCHAR K
ENCODING 75
SWIDTH 635 0
DWIDTH 17 0
BBX 16 19 3 0
BITMAP
0c07
1c0e
1c1c
1c38
1870
18e0
39c0
3b80
3f00
3600
3300
7300
7180
71c0
70c0
6060
e070
e030
e018
ENDCHAR
STARTCHAR L
ENCODING 76
SWIDTH 545 0
DWIDTH 14 0
BBX 12 19 2 0
BITMAP
0c00
0c00
1c00
1c00
1c00
1800
1800
3800
3800
3800
3000
3000
7000
7000
7000
6000
6000
fff0
fff0
ENDCHAR
STARTCHAR M
ENCODING 77
SWIDTH 828 0
DWIDTH 22 0
BBX 20 19 3 0
BITMAP
0e00f0
1e00f0
1f01f0
1f01e0
1f0360
1b03e0
3b06e0
3306e0
338cc0
339cc0
3398c0
73b9c0
71b1c0
61e180
61e180
61c180
e1c380
e00380
c00300
ENDCHAR
STARTCHAR N
ENCODING 78
SWIDTH 741 0
DWIDTH 19 0
BBX 18 19 3 0
BITMAP
0c00c0
1e01c0
1e01c0
1f0180
1f0180
1b8180
3b8380
39c380
31c300
30c300
30e300
70e700
707700
607600
603e00
603e00
e01e00
e01e00
c01c00
ENDCHAR
STARTCHAR O
ENCODING 79
SWIDTH 777 0
DWIDTH 20 0
BBX 18 19 3 0
BITMAP
00fc00
03ff00
078780
0e03c0
1c01c0
3801c0
7001c0
7001c0
6001c0
e001c0
e001c0
e00180
e00380
e00700
e00700
701e00
783c00
3ff000
0fc000
ENDCHAR
STARTCHAR P
ENCODING 80
SWIDTH 575 0
DWIDTH 15 0
BBX 14 19 3 0
BITMAP
0ff0
1ff8
1c1c
1c1c
181c
181c
3818
3838
38f0
3fe0
3f00
7000
7000
7000
6000
6000
e000
e000
e000
ENDCHAR
STARTCHAR Q
ENCODING 81
SWIDTH 777 0
DWIDTH 20 0
BBX 18 24 3 -5
BITMAP
00fc00
03ff00
078780
0e03c0
1c01c0
3801c0
7001c0
7001c0
6001c0
e001c0
e001c0
e001c0
e00380
e00700
e00700
701e00
783c00
3ff800
0fe000
003800
001e00
000fc0
000780
000100
ENDCHAR
STARTCHAR R
ENCODING 82
SWIDTH 632 0
DWIDTH 16 0
BBX 14 19 3 0
BITMAP
0ff0
1ffc
1c1c
1c1c
181c
181c
3818
3838
3860
3fc0
3f80
71c0
71c0
70e0
70e0
6070
e070
e038
e038
ENDCHAR
STARTCHAR S
ENCODING 83
SWIDTH 553 0
DWIDTH 14 0
BBX 15 19 2 0
BITMAP
01f8
07fe
0e04
1c00
1c00
1c00
1c00
0f00
0780
03c0
01e0
00f0
0070
0030
0030
0070
c0e0
ffc0
7f00
ENDCHAR
STARTCHAR T
ENCODING 84
SWIDTH 623 0
DWIDTH 16 0
BBX 16 19 4 0
BITMAP
ffff
ffff
0380
0380
0380
0300
0300
0700
0700
0700
0700
0600
0e00
0e00
0e00
0e00
0c00
0c00
1c00
ENDCHAR
STARTCHAR U
ENCODING 85
SWIDTH 693 0
DWIDTH 18 0
BBX 16 19 3 0
BITMAP
3803
3807
3807
3806
3006
7006
700e
700e
700c
600c
e00c
e01c
e018
e018
e038
e030
7070
7fe0
1f80
ENDCHAR
STARTCHAR V
ENCODING 86
SWIDTH 687 0
DWIDTH 18 0
BBX 17 19 4 0
BITMAP
e00380
e00300
e00700
600e00
700c00
701c00
701800
703800
303000
387000
38e000
38c000
39c000
198000
1f8000
1f0000
1f0000
1e0000
1e0000
ENDCHAR
STARTCHAR W
ENCODING 87
SWIDTH 886 0
DWIDTH 23 0
BBX 22 19 4 0
BITMAP
e0301c
e07018
e07038
e0f030
e0f030
e1f860
e1b860
e1b8c0
e338c0
e339c0
663980
663b80
6e3b00
6c3f00
7c3e00
783e00
783c00
703c00
703800
ENDCHAR
STARTCHAR X
ENCODING 88
SWIDTH 620 0
DWIDTH 16 0
BBX 19 19 0 0
BITMAP
0e00e0
0701c0
070380
038700
038e00
01dc00
01d800
00f800
00f000
00f000
01f000
03f000
033800
063800
0e1c00
1c1c00
380e00
700e00
e00700
ENDCHAR
STARTCHAR Y
ENCODING 89
SWIDTH 608 0
DWIDTH 16 0
BBX 15 19 4 0
BITMAP
e00e
601c
7038
7030
3860
38e0
1dc0
1d80
0f00
0f00
0e00
0e00
0e00
0c00
0c00
1c00
1c00
1c00
1800
ENDCHAR
STARTCHAR Z
ENCODING 90
SWIDTH 578 0
DWIDTH 15 0
BBX 17 19 1 0
BITMAP
0fff80
0fff80
000700
000e00
001c00
003c00
007800
007000
00e000
01c000
038000
070000
0f0000
1e0000
3c0000
380000
700000
fffc00
fffc00
ENDCHAR
STARTCHAR bracketleft
ENCODING 91
SWIDTH 325 0
DWIDTH 8 0
BBX 10 23 1 -4
BITMAP
07c0
0fc0
0e00
0c00
0c00
0c00
1c00
1c00
1800
1800
1800
3800
3000
3000
3000
3000
7000
6000
6000
6000
6000
fc00
f800
ENDCHAR
STARTCHAR backslash
ENCODING 92
SWIDTH 482 0
DWIDTH 13 0
BBX 7 23 4 -4
BITMAP
c0
c0
40
60
60
60
60
30
30
30
30
10
18
18
18
18
0c
0c
0c
0c
04
06
06
ENDCHAR
STARTCHAR bracketright
ENCODING 93
SWIDTH 325 0
DWIDTH 8 0
BBX 10 23 0 -4
BITMAP
07c0
0fc0
0180
0180
0180
0180
0380
0300
0300
0300
0300
0700
0600
0600
0600
0e00
0e00
0c00
0c00
0c00
1c00
f800
f800
ENDCHAR
STARTCHAR asciicircum
ENCODING 94
SWIDTH 633 0
DWIDTH 16 0
BBX 15 16 1 3
BITMAP
0020
0060
0060
00e0
01f0
01b0
0330
0718
0618
0e18
0c18
180c
380c
300c
6006
e006
ENDCHAR
STARTCHAR underscore
ENCODING 95
SWIDTH 500 0
DWIDTH 13 0
BBX 11 2 1 -2
BITMAP
ffe0
ffe0
ENDCHAR
STARTCHAR grave
ENCODING 96
SWIDTH 572 0
DWIDTH 15 0
BBX 5 4 8 15
BITMAP
e0
70
30
18
ENDCHAR
STARTCHAR a
ENCODING 97
SWIDTH 608 0
DWIDTH 16 0
BBX 14 14 2 0
BITMAP
01fc
07fc
0e1c
1c18
3818
7038
7078
6078
e0f0
e1f0
e3f0
e770
fe70
7860
ENDCHAR
STARTCHAR b
ENCODING 98
SWIDTH 608 0
DWIDTH 16 0
BBX 14 19 2 0
BITMAP
0e00
0c00
0c00
1c00
1c00
1878
19fc
3b9c
3f1c
361c
3c1c
3818
7838
7038
6070
60e0
61c0
ff80
fe00
ENDCHAR
STARTCHAR c
ENCODING 99
SWIDTH 503 0
DWIDTH 13 0
BBX 12 14 2 0
BITMAP
03f0
0ff0
1c10
3800
7000
6000
e000
e000
e000
e000
e040
e1c0
7fc0
3e00
ENDCHAR
STARTCHAR d
ENCODING 100
SWIDTH 608 0
DWIDTH 16 0
BBX 15 19 2 0
BITMAP
000e
000e
000c
000c
001c
01fc
07fc
0e18
1c18
3838
7038
7078
60f0
e0f0
e1f0
e3f0
e770
fe60
7860
ENDCHAR
STARTCHAR e
ENCODING 101
SWIDTH 529 0
DWIDTH 14 0
BBX 11 14 2 0
BITMAP
03c0
0fe0
1c60
3060
7060
60c0
e780
ff00
f000
e000
e020
e0e0
7fc0
3f00
ENDCHAR
STARTCHAR f
ENCODING 102
SWIDTH 383 0
DWIDTH 10 0
BBX 13 25 2 -5
BITMAP
00f8
03f8
0788
0600
0e00
0c00
7fc0
7fc0
1c00
1c00
1800
1800
1800
3800
3800
3000
3000
3000
7000
7000
6000
6000
6000
e000
e000
ENDCHAR
STARTCHAR g
ENCODING 103
SWIDTH 608 0
DWIDTH 16 0
BBX 15 19 1 -5
BITMAP
00fe
03fe
070c
0e0c
1c0c
381c
381c
3038
7078
70d8
71b8
73b8
3f30
3c30
0070
0060
c0e0
ffc0
7f00
ENDCHAR
STARTCHAR h
ENCODING 104
SWIDTH 620 0
DWIDTH 16 0
BBX 13 19 3 0
BITMAP
0c00
0c00
1c00
1c00
1800
1870
19f8
3bb8
3f38
3e38
3c38
3c30
7830
7070
6070
6070
6060
e060
e0e0
ENDCHAR
STARTCHAR i
ENCODING 105
SWIDTH 289 0
DWIDTH 8 0
BBX 6 19 3 0
BITMAP
1c
1c
00
00
00
18
38
38
30
30
30
70
70
60
60
60
e0
e0
e0
ENDCHAR
STARTCHAR j
ENCODING 106
SWIDTH 325 0
DWIDTH 8 0
BBX 13 24 -2 -5
BITMAP
0038
0038
0000
0000
0000
0070
0070
0060
0060
00e0
00e0
00e0
00c0
00c0
01c0
01c0
01c0
0180
0180
0380
0300
8600
fe00
f800
ENDCHAR
STARTCHAR k
ENCODING 107
SWIDTH 572 0
DWIDTH 15 0
BBX 14 19 2 0
BITMAP
0e00
0c00
0c00
1c00
1c00
183c
1870
18e0
39c0
3b80
3700
3e00
7700
7380
6380
61c0
60e0
e060
e070
ENDCHAR
STARTCHAR l
ENCODING 108
SWIDTH 289 0
DWIDTH 8 0
BBX 7 19 2 0
BITMAP
0e
0e
0c
0c
1c
1c
18
18
38
38
38
30
30
70
70
60
60
e0
e0
ENDCHAR
STARTCHAR m
ENCODING 109
SWIDTH 934 0
DWIDTH 24 0
BBX 22 14 2 0
BITMAP
187838
19f8fc
1b99dc
3f1b9c
361f1c
3c3e1c
3c3c18
383818
703838
603038
607030
607030
606030
c06070
ENDCHAR
STARTCHAR n
ENCODING 110
SWIDTH 620 0
DWIDTH 16 0
BBX 13 14 3 0
BITMAP
1870
39f8
3bb8
3738
3e38
3c38
7830
7830
7070
6070
6070
e060
e060
e0e0
ENDCHAR
STARTCHAR o
ENCODING 111
SWIDTH 566 0
DWIDTH 15 0
BBX 13 14 2 0
BITMAP
03c0
0ff0
1c30
3838
7038
6038
e038
e030
e070
e070
e0e0
e1c0
7f80
3e00
ENDCHAR
STARTCHAR p
ENCODING 112
SWIDTH 608 0
DWIDTH 16 0
BBX 15 19 1 -5
BITMAP
0c3c
1cfe
1dce
1f8e
1f0e
1e0e
3c0c
3c1c
381c
3038
3070
70e0
7fc0
7f00
6000
6000
e000
e000
e000
ENDCHAR
STARTCHAR q
ENCODING 113
SWIDTH 608 0
DWIDTH 16 0
BBX 14 19 2 -5
BITMAP
01fc
07fc
0e18
1c18
3818
7038
7078
6070
e0f0
e1b0
e3f0
e770
fe60
7860
0060
00e0
00e0
00c0
00c0
ENDCHAR
STARTCHAR r
ENCODING 114
SWIDTH 478 0
DWIDTH 12 0
BBX 12 14 2 0
BITMAP
1870
18f0
3ba0
3b00
3600
3c00
3c00
7800
7000
6000
6000
6000
e000
e000
ENDCHAR
STARTCHAR s
ENCODING 115
SWIDTH 489 0
DWIDTH 13 0
BBX 11 14 2 0
BITMAP
07c0
1fe0
1c60
3800
1800
1c00
0e00
0700
0380
0180
0180
c380
ff80
7e00
ENDCHAR
STARTCHAR t
ENCODING 116
SWIDTH 383 0
DWIDTH 10 0
BBX 8 17 3 0
BITMAP
18
18
18
ff
ff
38
30
30
70
70
70
60
60
e0
60
7c
38
ENDCHAR
STARTCHAR u
ENCODING 117
SWIDTH 620 0
DWIDTH 16 0
BBX 13 14 3 0
BITMAP
3038
3038
3038
3030
6030
6070
60f0
60f0
61e0
e3e0
e760
eee0
fce0
70c0
ENDCHAR
STARTCHAR v
ENCODING 118
SWIDTH 545 0
DWIDTH 14 0
BBX 13 14 3 0
BITMAP
c038
e030
e060
e0e0
60c0
61c0
6180
6300
6700
7600
7c00
7c00
3800
3800
ENDCHAR
STARTCHAR w
ENCODING 119
SWIDTH 795 0
DWIDTH 20 0
BBX 19 14 3 0
BITMAP
c0e0e0
e0e0c0
e1e1c0
e1e180
e36380
e36300
666700
666600
6c6e00
6c6c00
7c7c00
787800
787800
707000
ENDCHAR
STARTCHAR x
ENCODING 120
SWIDTH 541 0
DWIDTH 14 0
BBX 15 14 1 0
BITMAP
1c0e
0e1c
0e38
0670
0760
03c0
0380
0380
07c0
0ec0
1ce0
3860
7070
e038
ENDCHAR
STARTCHAR y
ENCODING 121
SWIDTH 548 0
DWIDTH 14 0
BBX 14 19 3 -5
BITMAP
601c
7018
7030
7030
3060
30e0
30c0
3980
3980
3b00
1f00
1e00
1c00
1c00
1800
3800
3000
6000
e000
ENDCHAR
STARTCHAR z
ENCODING 122
SWIDTH 536 0
DWIDTH 14 0
BBX 13 14 2 0
BITMAP
1ff8
1ff8
0070
00e0
01c0
0380
0780
0f00
0e00
1c00
3800
7000
ffe0
ffe0
ENDCHAR
STARTCHAR braceleft
ENCODING 123
SWIDTH 325 0
DWIDTH 8 0
BBX 9 23 2 -4
BITMAP
0380
0780
0e00
0c00
0c00
0c00
0c00
1c00
1c00
3800
f000
e000
3000
3000
3000
3000
7000
6000
6000
c000
e000
7800
3000
ENDCHAR
STARTCHAR bar
ENCODING 124
SWIDTH 233 0
DWIDTH 6 0
BBX 7 23 1 -4
BITMAP
06
06
04
0c
0c
0c
0c
18
18
18
18
10
30
30
30
30
60
60
60
60
40
c0
c0
ENDCHAR
STARTCHAR braceright
ENCODING 125
SWIDTH 325 0
DWIDTH 8 0
BBX 9 23 1 -4
BITMAP
0600
0f00
0380
0380
0300
0300
0600
0600
0600
0600
0380
0780
0e00
0c00
1800
1800
1800
1800
1800
3800
f000
f000
c000
ENDCHAR
STARTCHAR asciitilde
ENCODING 126
SWIDTH 633 0
DWIDTH 16 0
BBX 16 6 2 5
BITMAP
1c03
3f03
6386
61c6
c0fc
c038
ENDCHAR
STARTCHAR nobreakspace
ENCODING 160
SWIDTH 316 0
DWIDTH 8 0
BBX 1 1 0 0
BITMAP
00
ENDCHAR
STARTCHAR Aogonek
ENCODING 161
SWIDTH 687 0
DWIDTH 18 0
BBX 17 23 1 -4
BITMAP
003800
003c00
007c00
007c00
00ec00
00cc00
01ce00
038e00
030e00
070600
060600
0e0700
0fff00
1fff00
180700
380300
700380
600380
e00380
00c000
018000
018000
00e000
ENDCHAR
STARTCHAR breve
ENCODING 162
SWIDTH 566 0
DWIDTH 15 0
BBX 8 4 8 15
BITMAP
c3
c2
7e
78
ENDCHAR
STARTCHAR Lstroke
ENCODING 163
SWIDTH 545 0
DWIDTH 14 0
BBX 13 19 1 0
BITMAP
0700
0700
0600
0e00
0e00
0e80
0d80
0f80
1f00
3c00
fc00
dc00
9800
1800
3800
3800
3800
3ff8
3ff8
ENDCHAR
STARTCHAR currency
ENCODING 164
SWIDTH 633 0
DWIDTH 16 0
BBX 18 17 1 1
BITMAP
080080
1801c0
1df380
0fff00
071e00
060c00
0c0600
0c0600
080400
180c00
180c00
0c1800
0e3800
1ffc00
73ee00
e00600
400400
ENDCHAR
STARTCHAR Lcaron
ENCODING 165
SWIDTH 545 0
DWIDTH 14 0
BBX 12 21 2 0
BITMAP
0070
00f0
0ce0
0c60
1ce0
1dc0
1d00
1800
1800
3800
3800
3800
3000
3000
7000
7000
7000
6000
6000
fff0
fff0
ENDCHAR
STARTCHAR Sacute
ENCODING 166
SWIDTH 553 0
DWIDTH 14 0
BBX 15 24 2 0
BITMAP
000e
0018
0030
0060
0000
01f8
07fe
0e04
1c00
1c00
1c00
1c00
0f00
0780
03c0
01e0
00f0
0070
0030
0030
0070
c0e0
ffc0
7f00
ENDCHAR
STARTCHAR section
ENCODING 167
SWIDTH 633 0
DWIDTH 16 0
BBX 14 24 2 -5
BITMAP
01fc
07fc
0e0c
1c00
1c00
1c00
0e00
0f00
0fc0
19f0
3870
3030
3030
3c30
1e70
0fe0
03e0
00e0
0070
0060
0060
c0e0
ffc0
7f00
ENDCHAR
STARTCHAR diaeresis
ENCODING 168
SWIDTH 566 0
DWIDTH 15 0
BBX 8 2 7 17
BITMAP
e3
c7
ENDCHAR
STARTCHAR Scaron
ENCODING 169
SWIDTH 553 0
DWIDTH 14 0
BBX 15 24 2 0
BITMAP
031c
01b8
01b0
00e0
0000
01f8
07fe
0e04
1c00
1c00
1c00
1c00
0f00
0780
03c0
01e0
00f0
0070
0030
0030
0070
c0e0
ffc0
7f00
ENDCHAR
STARTCHAR Scedilla
ENCODING 170
SWIDTH 553 0
DWIDTH 14 0
BBX 15 25 2 -6
BITMAP
01f8
07fe
0e04
1c00
1c00
1c00
1c00
0f00
0780
03c0
01e0
00f0
0070
0030
0030
0070
c0e0
ffc0
7f00
0080
0180
00c0
00c0
00c0
0380
ENDCHAR
STARTCHAR Tcaron
ENCODING 171
SWIDTH 623 0
DWIDTH 16 0
BBX 16 24 4 0
BITMAP
0638
0370
0360
01c0
0000
ffff
ffff
0380
0380
0380
0300
0300
0700
0700
0700
0700
0600
0e00
0e00
0e00
0e00
0c00
0c00
1c00
ENDCHAR
STARTCHAR Zacute
ENCODING 172
SWIDTH 578 0
DWIDTH 15 0
BBX 17 24 1 0
BITMAP
000700
000c00
001800
003000
000000
0fff80
0fff80
000700
000e00
001c00
003c00
007800
007000
00e000
01c000
038000
070000
0f0000
1e0000
3c0000
380000
700000
fffc00
fffc00
ENDCHAR
STARTCHAR hyphen
ENCODING 173
SWIDTH 313 0
DWIDTH 8 0
BBX 6 2 3 8
BITMAP
fc
fc
ENDCHAR
STARTCHAR Zcaron
ENCODING 174
SWIDTH 578 0
DWIDTH 15 0
BBX 17 24 1 0
BITMAP
018e00
00dc00
00d800
007000
000000
0fff80
0fff80
000700
000e00
001c00
003c00
007800
007000
00e000
01c000
038000
070000
0f0000
1e0000
3c0000
380000
700000
fffc00
fffc00
ENDCHAR
STARTCHAR Zabovedot
ENCODING 175
SWIDTH 578 0
DWIDTH 15 0
BBX 17 22 1 0
BITMAP
007000
007000
000000
0fff80
0fff80
000700
000e00
001c00
003c00
007800
007000
00e000
01c000
038000
070000
0f0000
1e0000
3c0000
380000
700000
fffc00
fffc00
ENDCHAR
STARTCHAR degree
ENCODING 176
SWIDTH 269 0
DWIDTH 7 0
BBX 4 5 5 14
BITMAP
70
90
90
90
70
ENDCHAR
STARTCHAR aogonek
ENCODING 177
SWIDTH 608 0
DWIDTH 16 0
BBX 14 18 2 -4
BITMAP
01fc
07fc
0e1c
1c18
3818
7038
7078
6078
e0f0
e1f0
e3f0
e770
fe70
7860
0300
0600
0600
0380
ENDCHAR
STARTCHAR ogonek
ENCODING 178
SWIDTH 566 0
DWIDTH 15 0
BBX 4 4 5 -4
BITMAP
60
c0
c0
70
ENDCHAR
STARTCHAR lstroke
ENCODING 179
SWIDTH 289 0
DWIDTH 8 0
BBX 10 19 1 0
BITMAP
0300
0700
0700
0600
0600
0640
0fc0
0f80
0e00
3c00
fc00
dc00
1800
1800
3800
3800
3800
3000
3000
ENDCHAR
STARTCHAR acute
ENCODING 180
SWIDTH 566 0
DWIDTH 15 0
BBX 6 4 9 15
BITMAP
1c
30
60
c0
ENDCHAR
STARTCHAR lcaron
ENCODING 181
SWIDTH 530 0
DWIDTH 14 0
BBX 13 21 2 0
BITMAP
0038
0078
0e70
0e30
0c70
0ce0
1c80
1c00
1800
1800
3800
3800
3800
3000
3000
7000
7000
6000
6000
e000
e000
ENDCHAR
STARTCHAR sacute
ENCODING 182
SWIDTH 489 0
DWIDTH 13 0
BBX 13 19 2 0
BITMAP
0038
0060
00c0
0180
0000
07c0
1fe0
1c60
3800
1800
1c00
0e00
0700
0380
0180
0180
c380
ff80
7e00
ENDCHAR
STARTCHAR caron
ENCODING 183
SWIDTH 568 0
DWIDTH 15 0
BBX 8 4 8 15
BITMAP
c7
6e
6c
38
ENDCHAR
STARTCHAR cedilla
ENCODING 184
SWIDTH 566 0
DWIDTH 15 0
BBX 4 6 5 -5
BITMAP
20
60
30
30
30
e0
ENDCHAR
STARTCHAR scaron
ENCODING 185
SWIDTH 489 0
DWIDTH 13 0
BBX 12 19 2 0
BITMAP
0c70
06e0
06c0
0380
0000
07c0
1fe0
1c60
3800
1800
1c00
0e00
0700
0380
0180
0180
c380
ff80
7e00
ENDCHAR
STARTCHAR scedilla
ENCODING 186
SWIDTH 489 0
DWIDTH 13 0
BBX 11 20 2 -6
BITMAP
07c0
1fe0
1c60
3800
1800
1c00
0e00
0700
0380
0180
0180
c380
ff80
7e00
0200
0600
0300
0300
0300
0e00
ENDCHAR
STARTCHAR tcaron
ENCODING 187
SWIDTH 492 0
DWIDTH 13 0
BBX 11 22 3 0
BITMAP
00e0
01e0
01c0
00c0
01c0
1b80
1a00
1800
ff00
ff00
3800
3000
3000
7000
7000
7000
6000
6000
e000
6000
7c00
3800
ENDCHAR
STARTCHAR zacute
ENCODING 188
SWIDTH 536 0
DWIDTH 14 0
BBX 14 19 2 0
BITMAP
001c
0030
0060
00c0
0000
1ff8
1ff8
0070
00e0
01c0
0380
0780
0f00
0e00
1c00
3800
7000
ffe0
ffe0
ENDCHAR
STARTCHAR doubleacute
ENCODING 189
SWIDTH 566 0
DWIDTH 15 0
BBX 9 4 7 15
BITMAP
1f80
3600
6c00
d800
ENDCHAR
STARTCHAR zcaron
ENCODING 190
SWIDTH 536 0
DWIDTH 14 0
BBX 13 19 2 0
BITMAP
0638
0370
0360
01c0
0000
1ff8
1ff8
0070
00e0
01c0
0380
0780
0f00
0e00
1c00
3800
7000
ffe0
ffe0
ENDCHAR
STARTCHAR zabovedot
ENCODING 191
SWIDTH 536 0
DWIDTH 14 0
BBX 13 17 2 0
BITMAP
01c0
01c0
0000
1ff8
1ff8
0070
00e0
01c0
0380
0780
0f00
0e00
1c00
3800
7000
ffe0
ffe0
ENDCHAR
STARTCHAR Racute
ENCODING 192
SWIDTH 632 0
DWIDTH 16 0
BBX 14 24 3 0
BITMAP
001c
0030
0060
00c0
0000
0ff0
1ffc
1c1c
1c1c
181c
181c
3818
3838
3860
3fc0
3f80
71c0
71c0
70e0
70e0
6070
e070
e038
e038
ENDCHAR
STARTCHAR Aacute
ENCODING 193
SWIDTH 687 0
DWIDTH 18 0
BBX 17 24 1 0
BITMAP
000700
000c00
001800
003000
000000
003800
003c00
007c00
007c00
00ec00
00cc00
01ce00
038e00
030e00
070600
060600
0e0700
0fff00
1fff00
180700
380300
700380
600380
e00380
ENDCHAR
STARTCHAR Acircumflex
ENCODING 194
SWIDTH 687 0
DWIDTH 18 0
BBX 17 24 1 0
BITMAP
001e00
003e00
007600
00e300
000000
003800
003c00
007c00
007c00
00ec00
00cc00
01ce00
038e00
030e00
070600
060600
0e0700
0fff00
1fff00
180700
380300
700380
600380
e00380
ENDCHAR
STARTCHAR Abreve
ENCODING 195
SWIDTH 687 0
DWIDTH 18 0
BBX 17 24 1 0
BITMAP
006180
006100
003f00
003c00
000000
003800
003c00
007c00
007c00
00ec00
00cc00
01ce00
038e00
030e00
070600
060600
0e0700
0fff00
1fff00
180700
380300
700380
600380
e00380
ENDCHAR
STARTCHAR Adiaeresis
ENCODING 196
SWIDTH 687 0
DWIDTH 18 0
BBX 17 22 1 0
BITMAP
00e300
00c700
000000
003800
003c00
007c00
007c00
00ec00
00cc00
01ce00
038e00
030e00
070600
060600
0e0700
0fff00
1fff00
180700
380300
700380
600380
e00380
ENDCHAR
STARTCHAR Lacute
ENCODING 197
SWIDTH 545 0
DWIDTH 14 0
BBX 12 24 2 0
BITMAP
01c0
0300
0600
0c00
0000
0c00
0c00
1c00
1c00
1c00
1800
1800
3800
3800
3800
3000
3000
7000
7000
7000
6000
6000
fff0
fff0
ENDCHAR
STARTCHAR Cacute
ENCODING 198
SWIDTH 679 0
DWIDTH 18 0
BBX 17 24 3 0
BITMAP
000700
000c00
001800
003000
000000
00ff00
03ff80
0f8180
1e0000
3c0000
380000
700000
700000
700000
e00000
e00000
e00000
e00000
e00000
e00000
700400
781c00
3ffc00
0fe000
ENDCHAR
STARTCHAR Ccedilla
ENCODING 199
SWIDTH 679 0
DWIDTH 18 0
BBX 17 24 3 -5
BITMAP
00ff00
03ff80
0f8180
1e0000
3c0000
380000
700000
700000
700000
e00000
e00000
e00000
e00000
e00000
e00000
700400
781c00
3ffc00
0fe000
060000
030000
030000
030000
0e0000
ENDCHAR
STARTCHAR Ccaron
ENCODING 200
SWIDTH 679 0
DWIDTH 18 0
BBX 17 24 3 0
BITMAP
018e00
00dc00
00d800
007000
000000
00ff00
03ff80
0f8180
1e0000
3c0000
380000
700000
700000
700000
e00000
e00000
e00000
e00000
e00000
e00000
700400
781c00
3ffc00
0fe000
ENDCHAR
STARTCHAR Eacute
ENCODING 201
SWIDTH 547 0
DWIDTH 14 0
BBX 14 24 3 0
BITMAP
0038
0060
00c0
0180
0000
0ffc
1ffc
1c00
1c00
1800
1800
3800
3800
3fe0
3fe0
3000
7000
7000
7000
6000
6000
e000
ffe0
ffe0
ENDCHAR
STARTCHAR Eogonek
ENCODING 202
SWIDTH 547 0
DWIDTH 14 0
BBX 14 23 3 -4
BITMAP
0ffc
1ffc
1c00
1c00
1800
1800
3800
3800
3fe0
3fe0
3000
7000
7000
7000
6000
6000
e000
ffe0
ffe0
0300
0600
0600
0380
ENDCHAR
STARTCHAR Ediaeresis
ENCODING 203
SWIDTH 547 0
DWIDTH 14 0
BBX 14 22 3 0
BITMAP
0e30
0c70
0000
0ffc
1ffc
1c00
1c00
1800
1800
3800
3800
3fe0
3fe0
3000
7000
7000
7000
6000
6000
e000
ffe0
ffe0
ENDCHAR
STARTCHAR Ecaron
ENCODING 204
SWIDTH 547 0
DWIDTH 14 0
BBX 14 24 3 0
BITMAP
0638
0370
0360
01c0
0000
0ffc
1ffc
1c00
1c00
1800
1800
3800
3800
3fe0
3fe0
3000
7000
7000
7000
6000
6000
e000
ffe0
ffe0
ENDCHAR
STARTCHAR Iacute
ENCODING 205
SWIDTH 289 0
DWIDTH 8 0
BBX 9 24 3 0
BITMAP
0380
0600
0c00
1800
0000
1c00
1c00
1c00
1800
1800
3800
3800
3800
3800
3000
7000
7000
7000
7000
6000
6000
e000
e000
e000
ENDCHAR
STARTCHAR Icircumflex
ENCODING 206
SWIDTH 289 0
DWIDTH 8 0
BBX 9 24 3 0
BITMAP
0f00
1f00
3b00
7180
0000
1c00
1c00
1c00
1800
1800
3800
3800
3800
3800
3000
7000
7000
7000
7000
6000
6000
e000
e000
e000
ENDCHAR
STARTCHAR Dcaron
ENCODING 207
SWIDTH 743 0
DWIDTH 19 0
BBX 18 24 2 0
BITMAP
018e00
00dc00
00d800
007000
000000
0ffc00
1fff00
1c0f80
1c03c0
1c01c0
1801c0
3801c0
3801c0
3801c0
3801c0
300180
700380
700380
700700
700e00
601e00
e03c00
fff000
ffc000
ENDCHAR
STARTCHAR Dstroke
ENCODING 208
SWIDTH 743 0
DWIDTH 19 0
BBX 19 19 1 0
BITMAP
07fe00
0fff80
0e07c0
0e01e0
0e00e0
0c00e0
1c00e0
1c00e0
ffc0e0
ffc0e0
1800c0
1801c0
3801c0
380380
380700
300700
301e00
7ff800
7fe000
ENDCHAR
STARTCHAR Nacute
ENCODING 209
SWIDTH 741 0
DWIDTH 19 0
BBX 18 24 3 0
BITMAP
000700
000c00
001800
003000
000000
0c00c0
1e01c0
1e01c0
1f0180
1f0180
1b8180
3b8380
39c380
31c300
30c300
30e300
70e700
707700
607600
603e00
603e00
e01e00
e01e00
c01c00
ENDCHAR
STARTCHAR Ncaron
ENCODING 210
SWIDTH 741 0
DWIDTH 19 0
BBX 18 24 3 0
BITMAP
018e00
00dc00
00d800
007000
000000
0c00c0
1e01c0
1e01c0
1f0180
1f0180
1b8180
3b8380
39c380
31c300
30c300
30e300
70e700
707700
607600
603e00
603e00
e01e00
e01e00
c01c00
ENDCHAR
STARTCHAR Oacute
ENCODING 211
SWIDTH 777 0
DWIDTH 20 0
BBX 18 24 3 0
BITMAP
000e00
001800
003000
006000
000000
00fc00
03ff00
078780
0e03c0
1c01c0
3801c0
7001c0
7001c0
6001c0
e001c0
e001c0
e00180
e00380
e00700
e00700
701e00
783c00
3ff000
0fc000
ENDCHAR
STARTCHAR Ocircumflex
ENCODING 212
SWIDTH 777 0
DWIDTH 20 0
BBX 18 24 3 0
BITMAP
003c00
007c00
00ec00
01c600
000000
00fc00
03ff00
078780
0e03c0
1c01c0
3801c0
7001c0
7001c0
6001c0
e001c0
e001c0
e00180
e00380
e00700
e00700
701e00
783c00
3ff000
0fc000
ENDCHAR
STARTCHAR Odoubleacute
ENCODING 213
SWIDTH 777 0
DWIDTH 20 0
BBX 18 24 3 0
BITMAP
000fc0
001b00
003600
006c00
000000
00fc00
03ff00
078780
0e03c0
1c01c0
3801c0
7001c0
7001c0
6001c0
e001c0
e001c0
e00180
e00380
e00700
e00700
701e00
783c00
3ff000
0fc000
ENDCHAR
STARTCHAR Odiaeresis
ENCODING 214
SWIDTH 777 0
DWIDTH 20 0
BBX 18 22 3 0
BITMAP
01c600
018e00
000000
00fc00
03ff00
078780
0e03c0
1c01c0
3801c0
7001c0
7001c0
6001c0
e001c0
e001c0
e00180
e00380
e00700
e00700
701e00
783c00
3ff000
0fc000
ENDCHAR
STARTCHAR multiply
ENCODING 215
SWIDTH 633 0
DWIDTH 16 0
BBX 17 16 1 0
BITMAP
300100
180380
1c0700
0c0e00
061c00
033800
03f000
01c000
01c000
07e000
0e7000
1c3000
381800
701c00
e00e00
400400
ENDCHAR
STARTCHAR Rcaron
ENCODING 216
SWIDTH 632 0
DWIDTH 16 0
BBX 14 24 3 0
BITMAP
0638
0370
0360
01c0
0000
0ff0
1ffc
1c1c
1c1c
181c
181c
3818
3838
3860
3fc0
3f80
71c0
71c0
70e0
70e0
6070
e070
e038
e038
ENDCHAR
STARTCHAR Uring
ENCODING 217
SWIDTH 693 0
DWIDTH 18 0
BBX 16 24 3 0
BITMAP
0060
0090
0090
0060
0000
3803
3807
3807
3806
3006
7006
700e
700e
700c
600c
e00c
e01c
e018
e018
e038
e030
7070
7fe0
1f80
ENDCHAR
STARTCHAR Uacute
ENCODING 218
SWIDTH 693 0
DWIDTH 18 0
BBX 16 24 3 0
BITMAP
001c
0030
0060
00c0
0000
3803
3807
3807
3806
3006
7006
700e
700e
700c
600c
e00c
e01c
e018
e018
e038
e030
7070
7fe0
1f80
ENDCHAR
STARTCHAR Udoubleacute
ENCODING 219
SWIDTH 693 0
DWIDTH 18 0
BBX 16 24 3 0
BITMAP
003f
006c
00d8
01b0
0000
3803
3807
3807
3806
3006
7006
700e
700e
700c
600c
e00c
e01c
e018
e018
e038
e030
7070
7fe0
1f80
ENDCHAR
STARTCHAR Udiaeresis
ENCODING 220
SWIDTH 693 0
DWIDTH 18 0
BBX 16 22 3 0
BITMAP
038c
031c
0000
3803
3807
3807
3806
3006
7006
700e
700e
700c
600c
e00c
e01c
e018
e018
e038
e030
7070
7fe0
1f80
ENDCHAR
STARTCHAR Yacute
ENCODING 221
SWIDTH 608 0
DWIDTH 16 0
BBX 15 24 4 0
BITMAP
0070
00c0
0180
0300
0000
e00e
601c
7038
7030
3860
38e0
1dc0
1d80
0f00
0f00
0e00
0e00
0e00
0c00
0c00
1c00
1c00
1c00
1800
ENDCHAR
STARTCHAR Tcedilla
ENCODING 222
SWIDTH 623 0
DWIDTH 16 0
BBX 16 25 4 -6
BITMAP
ffff
ffff
0380
0380
0380
0300
0300
0700
0700
0700
0700
0600
0e00
0e00
0e00
0e00
0c00
0c00
1c00
0080
0180
00c0
00c0
00c0
0380
ENDCHAR
STARTCHAR ssharp
ENCODING 223
SWIDTH 595 0
DWIDTH 15 0
BBX 14 25 2 -5
BITMAP
01f0
03f8
0718
0e18
0e18
0c30
0c60
0cc0
1d80
1d80
19c0
18e0
1870
3838
381c
300c
300c
321c
73f8
73e0
6000
6000
6000
e000
e000
ENDCHAR
STARTCHAR racute
ENCODING 224
SWIDTH 478 0
DWIDTH 12 0
BBX 13 19 2 0
BITMAP
0038
0060
00c0
0180
0000
1870
18f0
3ba0
3b00
3600
3c00
3c00
7800
7000
6000
6000
6000
e000
e000
ENDCHAR
STARTCHAR aacute
ENCODING 225
SWIDTH 608 0
DWIDTH 16 0
BBX 14 19 2 0
BITMAP
001c
0030
0060
00c0
0000
01fc
07fc
0e1c
1c18
3818
7038
7078
6078
e0f0
e1f0
e3f0
e770
fe70
7860
ENDCHAR
STARTCHAR acircumflex
ENCODING 226
SWIDTH 608 0
DWIDTH 16 0
BBX 14 19 2 0
BITMAP
00f0
01f0
03b0
0718
0000
01fc
07fc
0e1c
1c18
3818
7038
7078
6078
e0f0
e1f0
e3f0
e770
fe70
7860
ENDCHAR
STARTCHAR abreve
ENCODING 227
SWIDTH 608 0
DWIDTH 16 0
BBX 15 19 2 0
BITMAP
0186
0184
00fc
00f0
0000
01fc
07fc
0e1c
1c18
3818
7038
7078
6078
e0f0
e1f0
e3f0
e770
fe70
7860
ENDCHAR
STARTCHAR adiaeresis
ENCODING 228
SWIDTH 608 0
DWIDTH 16 0
BBX 14 17 2 0
BITMAP
038c
031c
0000
01fc
07fc
0e1c
1c18
3818
7038
7078
6078
e0f0
e1f0
e3f0
e770
fe70
7860
ENDCHAR
STARTCHAR lacute
ENCODING 229
SWIDTH 289 0
DWIDTH 8 0
BBX 11 24 2 0
BITMAP
00e0
0180
0300
0600
0000
0e00
0e00
0c00
0c00
1c00
1c00
1800
1800
3800
3800
3800
3000
3000
7000
7000
6000
6000
e000
e000
ENDCHAR
STARTCHAR cacute
ENCODING 230
SWIDTH 503 0
DWIDTH 13 0
BBX 13 19 2 0
BITMAP
0038
0060
00c0
0180
0000
03f0
0ff0
1c10
3800
7000
6000
e000
e000
e000
e000
e040
e1c0
7fc0
3e00
ENDCHAR
STARTCHAR ccedilla
ENCODING 231
SWIDTH 503 0
DWIDTH 13 0
BBX 12 19 2 -5
BITMAP
03f0
0ff0
1c10
3800
7000
6000
e000
e000
e000
e000
e040
e1c0
7fc0
3e00
1800
0c00
0c00
0c00
3800
ENDCHAR
STARTCHAR ccaron
ENCODING 232
SWIDTH 503 0
DWIDTH 13 0
BBX 12 19 2 0
BITMAP
0c70
06e0
06c0
0380
0000
03f0
0ff0
1c10
3800
7000
6000
e000
e000
e000
e000
e040
e1c0
7fc0
3e00
ENDCHAR
STARTCHAR eacute
ENCODING 233
SWIDTH 529 0
DWIDTH 14 0
BBX 13 19 2 0
BITMAP
0038
0060
00c0
0180
0000
03c0
0fe0
1c60
3060
7060
60c0
e780
ff00
f000
e000
e020
e0e0
7fc0
3f00
ENDCHAR
STARTCHAR eogonek
ENCODING 234
SWIDTH 529 0
DWIDTH 14 0
BBX 11 18 2 -4
BITMAP
03c0
0fe0
1c60
3060
7060
60c0
e780
ff00
f000
e000
e020
e0e0
7fc0
3f00
0600
0c00
0c00
0700
ENDCHAR
STARTCHAR ediaeresis
ENCODING 235
SWIDTH 529 0
DWIDTH 14 0
BBX 12 17 2 0
BITMAP
0e30
0c70
0000
03c0
0fe0
1c60
3060
7060
60c0
e780
ff00
f000
e000
e020
e0e0
7fc0
3f00
ENDCHAR
STARTCHAR ecaron
ENCODING 236
SWIDTH 529 0
DWIDTH 14 0
BBX 12 19 2 0
BITMAP
0c70
06e0
06c0
0380
0000
03c0
0fe0
1c60
3060
7060
60c0
e780
ff00
f000
e000
e020
e0e0
7fc0
3f00
ENDCHAR
STARTCHAR iacute
ENCODING 237
SWIDTH 289 0
DWIDTH 8 0
BBX 9 19 3 0
BITMAP
0380
0600
0c00
1800
0000
1800
3800
3800
3000
3000
3000
7000
7000
6000
6000
6000
e000
e000
e000
ENDCHAR
STARTCHAR icircumflex
ENCODING 238
SWIDTH 289 0
DWIDTH 8 0
BBX 9 19 3 0
BITMAP
0f00
1f00
3b00
7180
0000
1800
3800
3800
3000
3000
3000
7000
7000
6000
6000
6000
e000
e000
e000
ENDCHAR
STARTCHAR dcaron
ENCODING 239
SWIDTH 833 0
DWIDTH 22 0
BBX 21 21 2 0
BITMAP
000038
000078
000e70
000e30
000c70
000ce0
001c80
01fc00
07fc00
0e1800
1c1800
383800
703800
707800
60f000
e0f000
e1f000
e3f000
e77000
fe6000
786000
ENDCHAR
STARTCHAR dstroke
ENCODING 240
SWIDTH 682 0
DWIDTH 18 0
BBX 17 19 2 0
BITMAP
000e00
000e00
000c00
00ff80
00ff80
01fc00
07fc00
0e1800
1c1800
383800
703800
707800
60f000
e0f000
e1f000
e3f000
e77000
fe6000
786000
ENDCHAR
STARTCHAR nacute
ENCODING 241
SWIDTH 620 0
DWIDTH 16 0
BBX 13 19 3 0
BITMAP
0038
0060
00c0
0180
0000
1870
39f8
3bb8
3738
3e38
3c38
7830
7830
7070
6070
6070
e060
e060
e0e0
ENDCHAR
STARTCHAR ncaron
ENCODING 242
SWIDTH 620 0
DWIDTH 16 0
BBX 13 19 3 0
BITMAP
0c70
06e0
06c0
0380
0000
1870
39f8
3bb8
3738
3e38
3c38
7830
7830
7070
6070
6070
e060
e060
e0e0
ENDCHAR
STARTCHAR oacute
ENCODING 243
SWIDTH 566 0
DWIDTH 15 0
BBX 13 19 2 0
BITMAP
0038
0060
00c0
0180
0000
03c0
0ff0
1c30
3838
7038
6038
e038
e030
e070
e070
e0e0
e1c0
7f80
3e00
ENDCHAR
STARTCHAR ocircumflex
ENCODING 244
SWIDTH 566 0
DWIDTH 15 0
BBX 13 19 2 0
BITMAP
00f0
01f0
03b0
0718
0000
03c0
0ff0
1c30
3838
7038
6038
e038
e030
e070
e070
e0e0
e1c0
7f80
3e00
ENDCHAR
STARTCHAR odoubleacute
ENCODING 245
SWIDTH 566 0
DWIDTH 15 0
BBX 14 19 2 0
BITMAP
00fc
01b0
0360
06c0
0000
03c0
0ff0
1c30
3838
7038
6038
e038
e030
e070
e070
e0e0
e1c0
7f80
3e00
ENDCHAR
STARTCHAR odiaeresis
ENCODING 246
SWIDTH 566 0
DWIDTH 15 0
BBX 13 17 2 0
BITMAP
0718
0638
0000
03c0
0ff0
1c30
3838
7038
6038
e038
e030
e070
e070
e0e0
e1c0
7f80
3e00
ENDCHAR
STARTCHAR division
ENCODING 247
SWIDTH 633 0
DWIDTH 16 0
BBX 15 14 2 0
BITMAP
01c0
01c0
0000
0000
0000
0000
fffe
fffe
0000
0000
0000
0000
0700
0700
ENDCHAR
STARTCHAR rcaron
ENCODING 248
SWIDTH 478 0
DWIDTH 12 0
BBX 12 19 2 0
BITMAP
0c70
06e0
06c0
0380
0000
1870
18f0
3ba0
3b00
3600
3c00
3c00
7800
7000
6000
6000
6000
e000
e000
ENDCHAR
STARTCHAR uring
ENCODING 249
SWIDTH 620 0
DWIDTH 16 0
BBX 13 19 3 0
BITMAP
0180
0240
0240
0180
0000
3038
3038
3038
3030
6030
6070
60f0
60f0
61e0
e3e0
e760
eee0
fce0
70c0
ENDCHAR
STARTCHAR uacute
ENCODING 250
SWIDTH 620 0
DWIDTH 16 0
BBX 13 19 3 0
BITMAP
0038
0060
00c0
0180
0000
3038
3038
3038
3030
6030
6070
60f0
60f0
61e0
e3e0
e760
eee0
fce0
70c0
ENDCHAR
STARTCHAR udoubleacute
ENCODING 251
SWIDTH 620 0
DWIDTH 16 0
BBX 14 19 3 0
BITMAP
00fc
01b0
0360
06c0
0000
3038
3038
3038
3030
6030
6070
60f0
60f0
61e0
e3e0
e760
eee0
fce0
70c0
ENDCHAR
STARTCHAR udiaeresis
ENCODING 252
SWIDTH 620 0
DWIDTH 16 0
BBX 13 17 3 0
BITMAP
0718
0638
0000
3038
3038
3038
3030
6030
6070
60f0
60f0
61e0
e3e0
e760
eee0
fce0
70c0
ENDCHAR
STARTCHAR yacute
ENCODING 253
SWIDTH 548 0
DWIDTH 14 0
BBX 14 24 3 -5
BITMAP
0070
00c0
0180
0300
0000
601c
7018
7030
7030
3060
30e0
30c0
3980
3980
3b00
1f00
1e00
1c00
1c00
1800
3800
3000
6000
e000
ENDCHAR
STARTCHAR tcedilla
ENCODING 254
SWIDTH 383 0
DWIDTH 10 0
BBX 8 23 3 -6
BITMAP
18
18
18
ff
ff
38
30
30
70
70
70
60
60
e0
60
7c
38
08
18
0c
0c
0c
38
ENDCHAR
STARTCHAR abovedot
ENCODING 255
SWIDTH 566 0
DWIDTH 15 0
BBX 3 2 10 17
BITMAP
e0
e0
ENDCHAR
ENDFONT
